<svg id="efec5e00-3a03-4cc7-a116-3276bdc4c472" xmlns="http://www.w3.org/2000/svg" viewBox="0 0 648.6 736.68">
  <ellipse cx="335.26" cy="731.16" rx="5.51" ry="98.07" transform="translate(-396.44 1065.25) rotate(-89.91)" fill="#e6e6e6"/>
  <path id="circle" d="M322.88,533.88c-138.45,0-250.69-112.23-250.69-250.68S184.43,32.51,322.87,32.51,573.56,144.75,573.56,283.2A250.67,250.67,0,0,1,322.88,533.88Zm0-499.37C185.75,34.51,74.19,146.07,74.19,283.2S185.75,531.88,322.88,531.88,571.56,420.32,571.56,283.2,460,34.51,322.88,34.51Z" fill="#e6e6e6"/>
  <g id="home2">
    <rect x="140.34" y="331.02" width="12.24" height="42.38" fill="#3f3d56"/>
    <polygon points="160.67 365.43 130.89 330 71.11 330.55 34.85 365.87 35.58 366.34 35.32 366.34 35.32 439.8 160.59 439.8 160.59 366.34 160.67 365.43" fill="#3f3d56"/>
    <polygon points="130.92 330.07 93.72 373.69 93.72 439.8 160.59 439.8 160.59 365.4 130.92 330.07" fill="#ff9463"/>
    <rect x="120.56" y="403.24" width="13.66" height="12.07" fill="#fff"/>
    <rect x="120.56" y="382.35" width="13.66" height="11.88" fill="#fff"/>
    <rect x="59.86" y="400.04" width="13.66" height="12.07" fill="#fff"/>
    <rect x="59.86" y="379.15" width="13.66" height="11.88" fill="#fff"/>
  </g>
  <g id="home1">
    <rect x="481.45" y="88.53" width="10.4" height="36.02" fill="#3f3d56"/>
    <polygon points="474.64 118.54 474.64 217.06 581.09 217.06 581.09 118.54 580.87 118.54 581.49 118.14 550.68 88.13 499.88 87.67 474.58 117.77 474.64 118.54" fill="#3f3d56"/>
    <polygon points="474.64 117.74 474.64 217.06 531.47 217.06 531.47 124.8 499.86 87.73 474.64 117.74" fill="#ff9463"/>
    <rect x="497.05" y="149.9" width="11.6" height="10.26" fill="#fff"/>
    <rect x="497.05" y="132.15" width="11.6" height="10.09" fill="#fff"/>
    <rect x="548.63" y="147.18" width="11.6" height="10.26" fill="#fff"/>
    <rect x="548.63" y="129.43" width="11.6" height="10.09" fill="#fff"/>
    <rect x="497.05" y="185.99" width="11.6" height="10.26" fill="#fff"/>
    <rect x="497.05" y="168.24" width="11.6" height="10.09" fill="#fff"/>
    <rect x="548.63" y="183.27" width="11.6" height="10.26" fill="#fff"/>
    <rect x="548.63" y="165.52" width="11.6" height="10.09" fill="#fff"/>
  </g>
  <circle cx="334.42" cy="179.98" r="30.59" fill="#a0616a"/>
  <path d="M303,235.37l52.08-.83c-4.48-12.34-6.42-23.9-3.31-33.89l-39.68-4.14Q320.14,215.94,303,235.37Z" fill="#a0616a"/>
  <path d="M257.54,440.39l8.64,23.06a14,14,0,0,1-8.17,18,13.58,13.58,0,0,1-3.21.79h0a14,14,0,0,1-15.65-14.4l1-26.6,7.44-136.41,30.58,9.09Z" fill="#a0616a"/>
  <polygon points="289.78 696.67 314.58 694.19 336.9 477.59 368.31 698.32 391.46 697.5 397.25 455.27 286.47 455.27 289.78 696.67" fill="#2f2e41"/>
  <path d="M370.79,168.4s-8.26,18.19-14.05,19-15.71,9.92-14.05,14.05S343.51,218,327,216.35s-15.71-3.3-15.71-3.3-26.45-50.43.83-63.66S363.35,146.08,370.79,168.4Z" fill="#2f2e41"/>
  <path d="M392.73,685.66l-1,20.87s15.15,23.62-3.73,23.62h0c-13.65,0-26,6.1-24.38-7.46l2.28-19.14,4-20.87Z" fill="#2f2e41"/>
  <path d="M290,685.66l1,20.87s-15.15,23.62,3.73,23.62h0c13.66,0,26,6.1,24.38-7.46l-2.28-19.14-4-20.87Z" fill="#2f2e41"/>
  <path d="M277.38,465.19l123.18-5.79c-23-73.72-23.15-134,5.78-189.58a29.72,29.72,0,0,0-18-27.31L352.61,227.1l-45.47,2.48-30,16.5a35.72,35.72,0,0,0-18.46,33.12C285,341.9,286.45,403.73,277.38,465.19Z" fill="#e6e6e6"/>
  <path d="M299.7,321.34l-68.62-11.57,11.31-28.07a74,74,0,0,1,44.77-42.38l6.75-2.3Z" fill="#e6e6e6"/>
  <path d="M514.93,258.24l21.13-8.8a15.92,15.92,0,0,0,8.57-20.81,14.78,14.78,0,0,0-1.23-2.37h0a15.93,15.93,0,0,0-25.55-1.88l-15.67,18.26-61.43,44.08L399,269.39,394,304l52.17,13.58Z" fill="#a0616a"/>
  <path d="M403.6,317.44l34-32-9-11c-8-20-26.54-28.18-46.92-35.12l-6.75-2.3-5.33,54.42Z" fill="#e6e6e6"/>
</svg>
